<svg width="1440" height="1024" viewBox="0 0 1440 1024" fill="none" xmlns="http://www.w3.org/2000/svg">
<g opacity="0.39">
<path d="M590.075 685.582C590.075 669.148 602.194 655.826 617.143 655.826C632.092 655.826 644.211 669.148 644.211 685.582V791.514C644.211 807.948 656.329 821.27 671.278 821.27C686.227 821.27 698.346 807.948 698.346 791.514V518.948C698.346 502.514 710.464 489.191 725.414 489.191C740.363 489.191 752.481 502.514 752.481 518.948V685.582C752.481 702.016 764.6 715.338 779.549 715.338C794.498 715.338 806.617 702.016 806.617 685.582V283.279C806.617 266.845 818.735 253.523 833.684 253.523C848.633 253.523 860.752 266.845 860.752 283.279V590.362C860.752 606.796 872.87 620.119 887.82 620.119C902.769 620.119 914.887 606.796 914.887 590.362V471.338C914.887 454.904 927.006 441.582 941.955 441.582C956.904 441.582 969.023 454.904 969.023 471.338V862.832C969.023 1088.88 590.075 1066.27 590.075 862.832V685.582Z" fill="url(#paint0_linear)"/>
<rect x="644.21" width="54.1353" height="715.338" rx="27.0677" fill="url(#paint1_linear)" fill-opacity="0.35"/>
<rect x="860.752" y="496.333" width="54.1353" height="123.786" rx="27.0677" fill="url(#paint2_linear)"/>
<path fill-rule="evenodd" clip-rule="evenodd" d="M77.0497 256.603C77.047 254.899 75.6634 253.519 73.9592 253.523C72.255 253.526 70.8756 254.91 70.8783 256.614L70.8855 261.206H67.2721C65.3986 261.206 63.8799 262.725 63.8799 264.598C63.8799 266.472 65.3986 267.99 67.2721 267.99H70.8962L70.9041 273.057C70.9068 274.761 72.2905 276.14 73.9947 276.137C75.6988 276.134 77.0782 274.75 77.0755 273.046L77.0676 267.99H81.0591C82.9326 267.99 84.4513 266.472 84.4513 264.598C84.4513 262.725 82.9326 261.206 81.0591 261.206H77.0569L77.0497 256.603Z" fill="url(#paint3_linear)"/>
<path fill-rule="evenodd" clip-rule="evenodd" d="M8.31796 533.986C8.31623 532.909 7.44228 532.038 6.36595 532.04C5.28962 532.042 4.41849 532.916 4.42022 533.993L4.42488 536.893H2.14245C0.959207 536.893 0 537.852 0 539.035C0 540.219 0.959205 541.178 2.14245 541.178H4.43178L4.43693 544.378C4.43866 545.454 5.3126 546.325 6.38893 546.323C7.46526 546.321 8.3364 545.447 8.33467 544.371L8.32953 541.178H10.85C12.0333 541.178 12.9925 540.219 12.9925 539.035C12.9925 537.852 12.0333 536.893 10.85 536.893H8.32263L8.31796 533.986Z" fill="url(#paint4_linear)"/>
<path d="M322.911 2.85177C322.908 1.27412 321.743 -0.00266052 320.308 4.1634e-06C318.873 0.0026674 317.711 1.28376 317.714 2.86142L317.719 6.47012H314.418C312.983 6.47012 311.819 7.74906 311.819 9.32671C311.819 10.9044 312.983 12.1833 314.418 12.1833H317.728L317.734 16.1922C317.737 17.7698 318.902 19.0466 320.337 19.0439C321.772 19.0413 322.934 17.7602 322.931 16.1825L322.925 12.1833H326.544C327.979 12.1833 329.143 10.9044 329.143 9.32671C329.143 7.74906 327.979 6.47012 326.544 6.47012H322.916L322.911 2.85177Z" fill="url(#paint5_linear)"/>
<path d="M246.646 673.674C246.643 671.702 245.186 670.106 243.392 670.109C241.598 670.112 240.147 671.714 240.15 673.686L240.157 678.197H236.03C234.236 678.197 232.782 679.795 232.782 681.767C232.782 683.739 234.236 685.338 236.03 685.338H240.168L240.175 690.349C240.178 692.321 241.635 693.917 243.429 693.914C245.223 693.911 246.674 692.309 246.671 690.337L246.664 685.338H251.188C252.982 685.338 254.436 683.739 254.436 681.767C254.436 679.795 252.982 678.197 251.188 678.197H246.653L246.646 673.674Z" fill="url(#paint6_linear)"/>
<path d="M342.36 433.836C342.355 430.878 340.17 428.484 337.479 428.489C334.788 428.494 332.611 430.896 332.615 433.854L332.626 440.62H326.436C323.745 440.62 321.563 443.018 321.563 445.976C321.563 448.935 323.745 451.333 326.436 451.333H332.642L332.654 458.849C332.658 461.807 334.843 464.201 337.534 464.196C340.225 464.191 342.403 461.789 342.398 458.831L342.387 451.333H349.173C351.863 451.333 354.045 448.935 354.045 445.976C354.045 443.018 351.863 440.62 349.173 440.62H342.37L342.36 433.836Z" fill="url(#paint7_linear)"/>
<path d="M1238.02 33.4991C1238.01 31.4284 1236.48 29.7527 1234.6 29.7562C1232.72 29.7597 1231.19 31.4411 1231.19 33.5118L1231.2 38.2482H1226.87C1224.99 38.2482 1223.46 39.9268 1223.46 41.9975C1223.46 44.0681 1224.99 45.7468 1226.87 45.7468H1231.21L1231.22 51.0084C1231.22 53.079 1232.75 54.7548 1234.64 54.7513C1236.52 54.7478 1238.05 53.0664 1238.04 50.9957L1238.03 45.7468H1242.78C1244.67 45.7468 1246.2 44.0681 1246.2 41.9975C1246.2 39.9268 1244.67 38.2482 1242.78 38.2482H1238.02L1238.02 33.4991Z" fill="url(#paint8_linear)"/>
<path d="M1433.77 278.989C1433.77 277.411 1432.6 276.135 1431.17 276.137C1429.73 276.14 1428.57 277.421 1428.57 278.999L1428.58 282.607H1425.28C1423.84 282.607 1422.68 283.886 1422.68 285.464C1422.68 287.042 1423.84 288.321 1425.28 288.321H1428.59L1428.59 292.329C1428.59 293.907 1429.76 295.184 1431.19 295.181C1432.63 295.179 1433.79 293.897 1433.79 292.32L1433.78 288.321H1437.4C1438.84 288.321 1440 287.042 1440 285.464C1440 283.886 1438.84 282.607 1437.4 282.607H1433.77L1433.77 278.989Z" fill="url(#paint9_linear)"/>
<ellipse cx="289.083" cy="224.957" rx="5.41353" ry="5.95123" fill="url(#paint10_linear)"/>
<path d="M1330.91 499.185C1330.91 497.607 1329.74 496.33 1328.31 496.333C1326.87 496.336 1325.71 497.617 1325.71 499.194L1325.72 502.803H1322.42C1320.98 502.803 1319.82 504.082 1319.82 505.66C1319.82 507.237 1320.98 508.516 1322.42 508.516H1325.73L1325.73 512.525C1325.74 514.103 1326.9 515.38 1328.34 515.377C1329.77 515.374 1330.93 514.093 1330.93 512.515L1330.92 508.516H1334.54C1335.98 508.516 1337.14 507.237 1337.14 505.66C1337.14 504.082 1335.98 502.803 1334.54 502.803H1330.92L1330.91 499.185Z" fill="url(#paint11_linear)"/>
<path d="M1110.69 306.658C1110.69 303.601 1108.43 301.127 1105.65 301.132C1102.87 301.138 1100.62 303.62 1100.62 306.676L1100.63 313.668H1094.24C1091.46 313.668 1089.2 316.146 1089.2 319.203C1089.2 322.26 1091.46 324.738 1094.24 324.738H1100.65L1100.66 332.505C1100.67 335.561 1102.93 338.035 1105.71 338.03C1108.49 338.025 1110.74 335.543 1110.73 332.486L1110.72 324.738H1117.73C1120.51 324.738 1122.77 322.26 1122.77 319.203C1122.77 316.146 1120.51 313.668 1117.73 313.668H1110.7L1110.69 306.658Z" fill="url(#paint12_linear)"/>
<path d="M1148.07 595.83C1148.06 593.464 1146.31 591.549 1144.16 591.553C1142.01 591.557 1140.27 593.478 1140.27 595.845L1140.28 601.258H1135.33C1133.17 601.258 1131.43 603.176 1131.43 605.543C1131.43 607.909 1133.17 609.828 1135.33 609.828H1140.29L1140.3 615.841C1140.3 618.207 1142.05 620.123 1144.21 620.119C1146.36 620.115 1148.1 618.193 1148.1 615.826L1148.09 609.828H1153.52C1155.67 609.828 1157.41 607.909 1157.41 605.543C1157.41 603.176 1155.67 601.258 1153.52 601.258H1148.07L1148.07 595.83Z" fill="url(#paint13_linear)"/>
<path d="M1424.8 701.17C1424.8 699.79 1423.78 698.673 1422.53 698.675C1421.27 698.677 1420.25 699.798 1420.26 701.179L1420.26 704.336H1417.37C1416.12 704.336 1415.1 705.455 1415.1 706.836C1415.1 708.216 1416.12 709.335 1417.37 709.335H1420.27L1420.27 712.843C1420.28 714.224 1421.3 715.341 1422.55 715.338C1423.81 715.336 1424.82 714.215 1424.82 712.835L1424.82 709.335H1427.98C1429.24 709.335 1430.26 708.216 1430.26 706.836C1430.26 705.455 1429.24 704.336 1427.98 704.336H1424.81L1424.8 701.17Z" fill="url(#paint14_linear)"/>
<rect x="752.481" y="120.215" width="54.1353" height="595.123" rx="27.0677" fill="url(#paint15_linear)"/>
<rect x="644.21" y="442.772" width="54.1353" height="378.499" rx="27.0677" fill="url(#paint16_linear)"/>
<rect x="590.075" y="390.401" width="54.1353" height="153.542" rx="27.0677" fill="url(#paint17_linear)"/>
<ellipse cx="152.121" cy="501.689" rx="4.87218" ry="5.35611" fill="url(#paint18_linear)"/>
<ellipse cx="1110.86" cy="470.148" rx="5.41353" ry="5.95123" fill="url(#paint19_linear)"/>
<ellipse cx="1109.77" cy="145.21" rx="3.24812" ry="3.57074" fill="url(#paint20_linear)"/>
<ellipse cx="1258.11" cy="288.04" rx="3.24812" ry="3.57074" fill="url(#paint21_linear)"/>
<g style="mix-blend-mode:soft-light">
<rect x="597.654" y="698.675" width="21.6541" height="65.4636" rx="10.8271" fill="white" fill-opacity="0.75"/>
</g>
<g style="mix-blend-mode:soft-light">
<rect x="597.654" y="411.825" width="21.6541" height="23.8049" rx="10.8271" fill="white"/>
</g>
<g style="mix-blend-mode:soft-light">
<rect x="652.872" y="460.626" width="21.6541" height="23.8049" rx="10.8271" fill="white"/>
</g>
<g style="mix-blend-mode:soft-light">
<rect x="597.654" y="667.729" width="21.6541" height="23.8049" rx="10.8271" fill="white" fill-opacity="0.75"/>
</g>
<g style="mix-blend-mode:hard-light">
<rect x="703.759" y="510.616" width="21.6541" height="65.4636" rx="10.8271" fill="white" fill-opacity="0.34"/>
</g>
<ellipse cx="720.542" cy="861.144" rx="24.3609" ry="26.7806" fill="#170073"/>
<ellipse cx="850.466" cy="861.144" rx="24.3609" ry="26.7806" fill="#170073"/>
<ellipse cx="685.353" cy="921.251" rx="10.8271" ry="11.9025" fill="#990000" fill-opacity="0.7"/>
<ellipse cx="885.654" cy="921.251" rx="10.8271" ry="11.9025" fill="#990000" fill-opacity="0.7"/>
<path d="M809.864 908.754C809.864 923.544 798.958 935.534 785.503 935.534C772.049 935.534 761.143 923.544 761.143 908.754" stroke="#170073" stroke-opacity="0.56" stroke-width="8" stroke-linecap="round"/>
</g>
<defs>
<linearGradient id="paint0_linear" x1="779.549" y1="253.523" x2="779.549" y2="1024" gradientUnits="userSpaceOnUse">
<stop offset="0.408084" stop-color="#FF00A6"/>
<stop offset="1" stop-color="#FFD900"/>
</linearGradient>
<linearGradient id="paint1_linear" x1="671.278" y1="0" x2="671.278" y2="715.338" gradientUnits="userSpaceOnUse">
<stop stop-color="#95007E"/>
<stop offset="0.635359" stop-color="#170073"/>
</linearGradient>
<linearGradient id="paint2_linear" x1="887.82" y1="496.333" x2="887.82" y2="620.119" gradientUnits="userSpaceOnUse">
<stop stop-color="#95007E"/>
<stop offset="1" stop-color="#170073"/>
</linearGradient>
<linearGradient id="paint3_linear" x1="74.1656" y1="253.523" x2="74.1656" y2="276.137" gradientUnits="userSpaceOnUse">
<stop stop-color="#FF00A6"/>
<stop offset="1" stop-color="#FFD900"/>
</linearGradient>
<linearGradient id="paint4_linear" x1="6.49624" y1="532.04" x2="6.49624" y2="546.323" gradientUnits="userSpaceOnUse">
<stop stop-color="#170073"/>
<stop offset="1" stop-color="#95007E"/>
</linearGradient>
<linearGradient id="paint5_linear" x1="320.481" y1="0" x2="320.481" y2="19.0439" gradientUnits="userSpaceOnUse">
<stop stop-color="#FF00A6"/>
<stop offset="1" stop-color="#FFD900"/>
</linearGradient>
<linearGradient id="paint6_linear" x1="243.609" y1="670.109" x2="243.609" y2="693.914" gradientUnits="userSpaceOnUse">
<stop stop-color="#FF00A6"/>
<stop offset="1" stop-color="#FFD900"/>
</linearGradient>
<linearGradient id="paint7_linear" x1="337.804" y1="428.489" x2="337.804" y2="464.196" gradientUnits="userSpaceOnUse">
<stop stop-color="#FF00A6"/>
<stop offset="1" stop-color="#FFD900"/>
</linearGradient>
<linearGradient id="paint8_linear" x1="1234.83" y1="29.7562" x2="1234.83" y2="54.7513" gradientUnits="userSpaceOnUse">
<stop stop-color="#FF00A6"/>
<stop offset="1" stop-color="#FFD900"/>
</linearGradient>
<linearGradient id="paint9_linear" x1="1431.34" y1="276.137" x2="1431.34" y2="295.181" gradientUnits="userSpaceOnUse">
<stop stop-color="#170073"/>
<stop offset="1" stop-color="#95007E"/>
</linearGradient>
<linearGradient id="paint10_linear" x1="289.083" y1="219.005" x2="289.083" y2="230.908" gradientUnits="userSpaceOnUse">
<stop stop-color="#170073"/>
<stop offset="1" stop-color="#95007E"/>
</linearGradient>
<linearGradient id="paint11_linear" x1="1328.48" y1="496.333" x2="1328.48" y2="515.377" gradientUnits="userSpaceOnUse">
<stop stop-color="#170073"/>
<stop offset="1" stop-color="#95007E"/>
</linearGradient>
<linearGradient id="paint12_linear" x1="1105.99" y1="301.132" x2="1105.99" y2="338.03" gradientUnits="userSpaceOnUse">
<stop stop-color="#FF00A6"/>
<stop offset="1" stop-color="#FFD900"/>
</linearGradient>
<linearGradient id="paint13_linear" x1="1144.42" y1="591.553" x2="1144.42" y2="620.119" gradientUnits="userSpaceOnUse">
<stop stop-color="#FF00A6"/>
<stop offset="1" stop-color="#FFD900"/>
</linearGradient>
<linearGradient id="paint14_linear" x1="1422.68" y1="698.675" x2="1422.68" y2="715.338" gradientUnits="userSpaceOnUse">
<stop stop-color="#FF00A6"/>
<stop offset="1" stop-color="#FFD900"/>
</linearGradient>
<linearGradient id="paint15_linear" x1="779.549" y1="120.215" x2="779.549" y2="715.338" gradientUnits="userSpaceOnUse">
<stop stop-color="#95007E"/>
<stop offset="0.740331" stop-color="#170073"/>
</linearGradient>
<linearGradient id="paint16_linear" x1="671.278" y1="442.772" x2="671.278" y2="821.27" gradientUnits="userSpaceOnUse">
<stop stop-color="#95007E"/>
<stop offset="1" stop-color="#170073"/>
</linearGradient>
<linearGradient id="paint17_linear" x1="617.143" y1="390.401" x2="617.143" y2="543.943" gradientUnits="userSpaceOnUse">
<stop stop-color="#FF01A6"/>
<stop offset="1" stop-color="#FFE345"/>
</linearGradient>
<linearGradient id="paint18_linear" x1="152.121" y1="496.333" x2="152.121" y2="507.045" gradientUnits="userSpaceOnUse">
<stop stop-color="#170073"/>
<stop offset="1" stop-color="#95007E"/>
</linearGradient>
<linearGradient id="paint19_linear" x1="1110.86" y1="464.196" x2="1110.86" y2="476.099" gradientUnits="userSpaceOnUse">
<stop stop-color="#170073"/>
<stop offset="1" stop-color="#95007E"/>
</linearGradient>
<linearGradient id="paint20_linear" x1="1109.77" y1="141.639" x2="1109.77" y2="148.781" gradientUnits="userSpaceOnUse">
<stop stop-color="#170073"/>
<stop offset="1" stop-color="#95007E"/>
</linearGradient>
<linearGradient id="paint21_linear" x1="1258.11" y1="284.469" x2="1258.11" y2="291.61" gradientUnits="userSpaceOnUse">
<stop stop-color="#170073"/>
<stop offset="1" stop-color="#95007E"/>
</linearGradient>
</defs>
</svg>
