<svg width="1088" height="736" viewBox="0 0 1088 736" fill="none" xmlns="http://www.w3.org/2000/svg">
<g opacity="0.39">
<path d="M446.272 492.124C446.272 480.329 455.419 470.767 466.702 470.767C477.986 470.767 487.133 480.329 487.133 492.124V568.156C487.133 579.951 496.28 589.513 507.563 589.513C518.847 589.513 527.994 579.951 527.994 568.156V372.524C527.994 360.728 537.141 351.166 548.424 351.166C559.708 351.166 568.855 360.728 568.855 372.524V492.124C568.855 503.919 578.002 513.481 589.285 513.481C600.569 513.481 609.716 503.919 609.716 492.124V203.374C609.716 191.579 618.863 182.017 630.146 182.017C641.43 182.017 650.577 191.579 650.577 203.374V423.781C650.577 435.576 659.724 445.138 671.007 445.138C682.291 445.138 691.438 435.576 691.438 423.781V338.352C691.438 326.557 700.585 316.995 711.868 316.995C723.152 316.995 732.299 326.557 732.299 338.352V619.343C732.299 781.588 446.272 765.357 446.272 619.343V492.124Z" fill="url(#paint0_linear)"/>
<rect x="487.133" y="0.0536652" width="40.861" height="513.427" rx="20.4305" fill="url(#paint1_linear)" fill-opacity="0.35"/>
<rect x="650.577" y="356.292" width="40.861" height="88.846" rx="20.4305" fill="url(#paint2_linear)"/>
<path fill-rule="evenodd" clip-rule="evenodd" d="M59.0443 184.342C59.0422 183.056 57.9978 182.015 56.7114 182.017C55.4251 182.019 54.3841 183.064 54.3861 184.35L54.3913 187.532H51.538C50.1933 187.532 49.1033 188.622 49.1033 189.966C49.1033 191.311 50.1933 192.401 51.538 192.401H54.3991L54.4048 195.924C54.4069 197.21 55.4513 198.251 56.7377 198.249C58.024 198.246 59.065 197.202 59.063 195.915L59.0573 192.401H62.1957C63.5404 192.401 64.6304 191.311 64.6304 189.966C64.6304 188.622 63.5404 187.532 62.1957 187.532H59.0494L59.0443 184.342Z" fill="url(#paint3_linear)"/>
<path fill-rule="evenodd" clip-rule="evenodd" d="M7.16558 383.389C7.16426 382.577 6.50461 381.919 5.69221 381.921C4.8798 381.922 4.22228 382.582 4.22359 383.394L4.22683 385.404H2.42493C1.57567 385.404 0.887207 386.092 0.887207 386.941C0.887207 387.791 1.57567 388.479 2.42493 388.479H4.2318L4.23539 390.704C4.23671 391.516 4.89636 392.174 5.70876 392.172C6.52117 392.171 7.17869 391.511 7.17738 390.699L7.1738 388.479H9.15612C10.0054 388.479 10.6938 387.791 10.6938 386.941C10.6938 386.092 10.0054 385.404 9.15612 385.404H7.16883L7.16558 383.389Z" fill="url(#paint4_linear)"/>
<path d="M244.618 2.10049C244.616 0.968152 243.737 0.0517556 242.654 0.0536681C241.57 0.0555797 240.694 0.975075 240.696 2.10742L240.7 4.69753H238.208C237.125 4.69753 236.247 5.61548 236.247 6.74783C236.247 7.88017 237.125 8.79812 238.208 8.79812H240.706L240.711 11.6754C240.713 12.8078 241.592 13.7242 242.676 13.7223C243.759 13.7204 244.636 12.8009 244.634 11.6685L244.629 8.79812H247.361C248.444 8.79812 249.322 7.88017 249.322 6.74783C249.322 5.61548 248.444 4.69753 247.361 4.69753H244.622L244.618 2.10049Z" fill="url(#paint5_linear)"/>
<path d="M187.054 483.577C187.052 482.161 185.952 481.016 184.598 481.018C183.244 481.021 182.148 482.17 182.151 483.585L182.156 486.823H179.041C177.687 486.823 176.589 487.97 176.589 489.386C176.589 490.801 177.687 491.949 179.041 491.949H182.164L182.17 495.545C182.172 496.961 183.272 498.106 184.626 498.104C185.98 498.102 187.076 496.952 187.073 495.537L187.067 491.949H190.482C191.836 491.949 192.934 490.801 192.934 489.386C192.934 487.97 191.836 486.823 190.482 486.823H187.059L187.054 483.577Z" fill="url(#paint6_linear)"/>
<path d="M259.298 311.435C259.295 309.312 257.646 307.594 255.615 307.598C253.584 307.601 251.94 309.325 251.943 311.448L251.951 316.305H247.279C245.248 316.305 243.602 318.026 243.602 320.149C243.602 322.272 245.248 323.993 247.279 323.993H251.964L251.972 329.388C251.976 331.512 253.625 333.23 255.656 333.226C257.687 333.223 259.331 331.499 259.327 329.375L259.319 323.993H264.441C266.472 323.993 268.118 322.272 268.118 320.149C268.118 318.026 266.472 316.305 264.441 316.305H259.306L259.298 311.435Z" fill="url(#paint7_linear)"/>
<path d="M935.333 24.0974C935.331 22.6112 934.176 21.4084 932.755 21.4109C931.333 21.4134 930.182 22.6202 930.185 24.1064L930.19 27.506H926.92C925.498 27.506 924.345 28.7108 924.345 30.197C924.345 31.6832 925.498 32.888 926.92 32.888H930.199L930.205 36.6645C930.207 38.1507 931.362 39.3534 932.784 39.3509C934.205 39.3484 935.356 38.1416 935.354 36.6554L935.347 32.888H938.933C940.355 32.888 941.507 31.6832 941.507 30.197C941.507 28.7108 940.355 27.506 938.933 27.506H935.339L935.333 24.0974Z" fill="url(#paint8_linear)"/>
<path d="M1083.09 200.295C1083.08 199.163 1082.2 198.247 1081.12 198.249C1080.04 198.251 1079.16 199.17 1079.16 200.302L1079.17 202.892H1076.68C1075.59 202.892 1074.71 203.81 1074.71 204.943C1074.71 206.075 1075.59 206.993 1076.68 206.993H1079.17L1079.18 209.87C1079.18 211.003 1080.06 211.919 1081.14 211.917C1082.23 211.915 1083.1 210.996 1083.1 209.863L1083.1 206.993H1085.83C1086.91 206.993 1087.79 206.075 1087.79 204.943C1087.79 203.81 1086.91 202.892 1085.83 202.892H1083.09L1083.09 200.295Z" fill="url(#paint9_linear)"/>
<ellipse cx="219.085" cy="161.514" rx="4.0861" ry="4.27144" fill="url(#paint10_linear)"/>
<path d="M1005.45 358.339C1005.45 357.207 1004.57 356.29 1003.49 356.292C1002.4 356.294 1001.53 357.213 1001.53 358.346L1001.53 360.936H999.039C997.956 360.936 997.078 361.854 997.078 362.986C997.078 364.119 997.956 365.036 999.039 365.036H1001.54L1001.54 367.914C1001.54 369.046 1002.42 369.963 1003.51 369.961C1004.59 369.959 1005.47 369.039 1005.47 367.907L1005.46 365.036H1008.19C1009.28 365.036 1010.15 364.119 1010.15 362.986C1010.15 361.854 1009.28 360.936 1008.19 360.936H1005.45L1005.45 358.339Z" fill="url(#paint11_linear)"/>
<path d="M839.23 220.154C839.227 217.961 837.523 216.185 835.424 216.189C833.325 216.192 831.627 217.974 831.63 220.168L831.638 225.186H826.81C824.712 225.186 823.01 226.965 823.01 229.159C823.01 231.353 824.712 233.131 826.81 233.131H831.651L831.66 238.706C831.664 240.9 833.368 242.675 835.467 242.672C837.565 242.668 839.264 240.886 839.26 238.692L839.251 233.131H844.544C846.643 233.131 848.344 231.353 848.344 229.159C848.344 226.965 846.643 225.186 844.544 225.186H839.238L839.23 220.154Z" fill="url(#paint12_linear)"/>
<path d="M867.439 427.705C867.437 426.007 866.117 424.632 864.492 424.635C862.868 424.638 861.553 426.017 861.555 427.716L861.562 431.601H857.824C856.199 431.601 854.882 432.978 854.882 434.676C854.882 436.375 856.199 437.752 857.824 437.752H861.572L861.579 442.068C861.581 443.766 862.901 445.141 864.525 445.138C866.15 445.135 867.465 443.756 867.462 442.057L867.456 437.752H871.553C873.178 437.752 874.495 436.375 874.495 434.676C874.495 432.978 873.178 431.601 871.553 431.601H867.446L867.439 427.705Z" fill="url(#paint13_linear)"/>
<path d="M1076.32 503.312C1076.32 502.321 1075.55 501.519 1074.6 501.521C1073.65 501.523 1072.88 502.327 1072.89 503.318L1072.89 505.585H1070.71C1069.76 505.585 1068.99 506.388 1068.99 507.379C1068.99 508.369 1069.76 509.173 1070.71 509.173H1072.9L1072.9 511.69C1072.9 512.681 1073.67 513.483 1074.62 513.481C1075.57 513.479 1076.33 512.675 1076.33 511.684L1076.33 509.173H1078.72C1079.67 509.173 1080.43 508.369 1080.43 507.379C1080.43 506.388 1079.67 505.585 1078.72 505.585H1076.32L1076.32 503.312Z" fill="url(#paint14_linear)"/>
<rect x="568.855" y="86.3368" width="40.861" height="427.144" rx="20.4305" fill="url(#paint15_linear)"/>
<rect x="487.133" y="317.849" width="40.861" height="271.664" rx="20.4305" fill="url(#paint16_linear)"/>
<rect x="446.272" y="280.26" width="40.861" height="110.203" rx="20.4305" fill="url(#paint17_linear)"/>
<ellipse cx="115.707" cy="360.136" rx="3.67749" ry="3.8443" fill="url(#paint18_linear)"/>
<ellipse cx="839.355" cy="337.498" rx="4.0861" ry="4.27144" fill="url(#paint19_linear)"/>
<ellipse cx="838.537" cy="104.277" rx="2.45166" ry="2.56287" fill="url(#paint20_linear)"/>
<ellipse cx="950.497" cy="206.792" rx="2.45166" ry="2.56287" fill="url(#paint21_linear)"/>
<g style="mix-blend-mode:soft-light">
<rect x="451.992" y="501.521" width="16.3444" height="46.9859" rx="8.1722" fill="white" fill-opacity="0.75"/>
</g>
<g style="mix-blend-mode:soft-light">
<rect x="451.992" y="295.638" width="16.3444" height="17.0858" rx="8.1722" fill="white"/>
</g>
<g style="mix-blend-mode:soft-light">
<rect x="493.671" y="330.663" width="16.3444" height="17.0858" rx="8.1722" fill="white"/>
</g>
<g style="mix-blend-mode:soft-light">
<rect x="451.992" y="479.31" width="16.3444" height="17.0858" rx="8.1722" fill="white" fill-opacity="0.75"/>
</g>
<g style="mix-blend-mode:hard-light">
<rect x="532.08" y="366.544" width="16.3444" height="46.9859" rx="8.1722" fill="white" fill-opacity="0.34"/>
</g>
<ellipse cx="544.747" cy="618.131" rx="18.3874" ry="19.2215" fill="#170073"/>
<ellipse cx="642.813" cy="618.131" rx="18.3874" ry="19.2215" fill="#170073"/>
<ellipse cx="518.187" cy="661.273" rx="8.1722" ry="8.54289" fill="#990000" fill-opacity="0.7"/>
<ellipse cx="669.373" cy="661.273" rx="8.1722" ry="8.54289" fill="#990000" fill-opacity="0.7"/>
<path d="M612.167 652.303C612.167 662.919 603.935 671.525 593.78 671.525C583.625 671.525 575.393 662.919 575.393 652.303" stroke="#170073" stroke-opacity="0.56" stroke-width="8" stroke-linecap="round"/>
</g>
<defs>
<linearGradient id="paint0_linear" x1="589.285" y1="182.017" x2="589.285" y2="735.02" gradientUnits="userSpaceOnUse">
<stop offset="0.408084" stop-color="#FF00A6"/>
<stop offset="1" stop-color="#FFD900"/>
</linearGradient>
<linearGradient id="paint1_linear" x1="507.563" y1="0.0536652" x2="507.563" y2="513.481" gradientUnits="userSpaceOnUse">
<stop stop-color="#95007E"/>
<stop offset="0.635359" stop-color="#170073"/>
</linearGradient>
<linearGradient id="paint2_linear" x1="671.007" y1="356.292" x2="671.007" y2="445.138" gradientUnits="userSpaceOnUse">
<stop stop-color="#95007E"/>
<stop offset="1" stop-color="#170073"/>
</linearGradient>
<linearGradient id="paint3_linear" x1="56.8669" y1="182.017" x2="56.8669" y2="198.249" gradientUnits="userSpaceOnUse">
<stop stop-color="#FF00A6"/>
<stop offset="1" stop-color="#FFD900"/>
</linearGradient>
<linearGradient id="paint4_linear" x1="5.79052" y1="381.921" x2="5.79052" y2="392.172" gradientUnits="userSpaceOnUse">
<stop stop-color="#170073"/>
<stop offset="1" stop-color="#95007E"/>
</linearGradient>
<linearGradient id="paint5_linear" x1="242.784" y1="0.0536652" x2="242.784" y2="13.7223" gradientUnits="userSpaceOnUse">
<stop stop-color="#FF00A6"/>
<stop offset="1" stop-color="#FFD900"/>
</linearGradient>
<linearGradient id="paint6_linear" x1="184.762" y1="481.018" x2="184.762" y2="498.104" gradientUnits="userSpaceOnUse">
<stop stop-color="#FF00A6"/>
<stop offset="1" stop-color="#FFD900"/>
</linearGradient>
<linearGradient id="paint7_linear" x1="255.86" y1="307.598" x2="255.86" y2="333.226" gradientUnits="userSpaceOnUse">
<stop stop-color="#FF00A6"/>
<stop offset="1" stop-color="#FFD900"/>
</linearGradient>
<linearGradient id="paint8_linear" x1="932.926" y1="21.4109" x2="932.926" y2="39.3509" gradientUnits="userSpaceOnUse">
<stop stop-color="#FF00A6"/>
<stop offset="1" stop-color="#FFD900"/>
</linearGradient>
<linearGradient id="paint9_linear" x1="1081.25" y1="198.249" x2="1081.25" y2="211.917" gradientUnits="userSpaceOnUse">
<stop stop-color="#170073"/>
<stop offset="1" stop-color="#95007E"/>
</linearGradient>
<linearGradient id="paint10_linear" x1="219.085" y1="157.243" x2="219.085" y2="165.786" gradientUnits="userSpaceOnUse">
<stop stop-color="#170073"/>
<stop offset="1" stop-color="#95007E"/>
</linearGradient>
<linearGradient id="paint11_linear" x1="1003.62" y1="356.292" x2="1003.62" y2="369.961" gradientUnits="userSpaceOnUse">
<stop stop-color="#170073"/>
<stop offset="1" stop-color="#95007E"/>
</linearGradient>
<linearGradient id="paint12_linear" x1="835.677" y1="216.189" x2="835.677" y2="242.672" gradientUnits="userSpaceOnUse">
<stop stop-color="#FF00A6"/>
<stop offset="1" stop-color="#FFD900"/>
</linearGradient>
<linearGradient id="paint13_linear" x1="864.688" y1="424.635" x2="864.688" y2="445.138" gradientUnits="userSpaceOnUse">
<stop stop-color="#FF00A6"/>
<stop offset="1" stop-color="#FFD900"/>
</linearGradient>
<linearGradient id="paint14_linear" x1="1074.71" y1="501.521" x2="1074.71" y2="513.481" gradientUnits="userSpaceOnUse">
<stop stop-color="#FF00A6"/>
<stop offset="1" stop-color="#FFD900"/>
</linearGradient>
<linearGradient id="paint15_linear" x1="589.285" y1="86.3368" x2="589.285" y2="513.481" gradientUnits="userSpaceOnUse">
<stop stop-color="#95007E"/>
<stop offset="0.740331" stop-color="#170073"/>
</linearGradient>
<linearGradient id="paint16_linear" x1="507.563" y1="317.849" x2="507.563" y2="589.513" gradientUnits="userSpaceOnUse">
<stop stop-color="#95007E"/>
<stop offset="1" stop-color="#170073"/>
</linearGradient>
<linearGradient id="paint17_linear" x1="466.702" y1="280.26" x2="466.702" y2="390.464" gradientUnits="userSpaceOnUse">
<stop stop-color="#FF01A6"/>
<stop offset="1" stop-color="#FFE345"/>
</linearGradient>
<linearGradient id="paint18_linear" x1="115.707" y1="356.292" x2="115.707" y2="363.981" gradientUnits="userSpaceOnUse">
<stop stop-color="#170073"/>
<stop offset="1" stop-color="#95007E"/>
</linearGradient>
<linearGradient id="paint19_linear" x1="839.355" y1="333.226" x2="839.355" y2="341.769" gradientUnits="userSpaceOnUse">
<stop stop-color="#170073"/>
<stop offset="1" stop-color="#95007E"/>
</linearGradient>
<linearGradient id="paint20_linear" x1="838.537" y1="101.714" x2="838.537" y2="106.84" gradientUnits="userSpaceOnUse">
<stop stop-color="#170073"/>
<stop offset="1" stop-color="#95007E"/>
</linearGradient>
<linearGradient id="paint21_linear" x1="950.497" y1="204.229" x2="950.497" y2="209.354" gradientUnits="userSpaceOnUse">
<stop stop-color="#170073"/>
<stop offset="1" stop-color="#95007E"/>
</linearGradient>
</defs>
</svg>
