<svg width="77" height="80" viewBox="0 0 77 80" fill="none" xmlns="http://www.w3.org/2000/svg">
<mask id="mask0" mask-type="alpha" maskUnits="userSpaceOnUse" x="0" y="0" width="77" height="80">
<path d="M1.30273 36.4978L38.8027 1.41711L76.3027 36.4978L69.0447 78.8365H38.8027H9.77048L1.30273 36.4978Z" fill="#C4C4C4" stroke="black"/>
</mask>
<g mask="url(#mask0)">
<rect x="-17.6973" y="0.417114" width="129" height="86" fill="url(#paint0_linear)"/>
<g filter="url(#filter0_d)">
<path d="M7.18212 36.2195L46.8924 88.3674H-32.5282L7.18212 36.2195Z" fill="#95007E"/>
</g>
<g filter="url(#filter1_d)">
<path d="M28.7113 43.9056C29.8052 43.752 30.5674 42.7407 30.4137 41.6469L27.9104 23.8218C27.7568 22.728 26.7455 21.9658 25.6517 22.1194C24.5579 22.273 23.7957 23.2843 23.9493 24.3781L26.1745 40.2226L10.3299 42.4478C9.23612 42.6014 8.47392 43.6127 8.62753 44.7065C8.78115 45.8003 9.79241 46.5625 10.8862 46.4089L28.7113 43.9056ZM-15.9011 11.0143L27.2294 43.5222L29.637 40.3279L-13.4935 7.81996L-15.9011 11.0143Z" fill="#170073"/>
</g>
<g filter="url(#filter2_d)">
<path d="M53.8903 51.266C53.0695 51.3786 52.4954 52.1351 52.6079 52.9559L54.4414 66.3308C54.5539 67.1515 55.3104 67.7257 56.1312 67.6132C56.9519 67.5006 57.5261 66.7441 57.4136 65.9233L55.7838 54.0345L67.6726 52.4048C68.4934 52.2923 69.0675 51.5357 68.955 50.7149C68.8425 49.8942 68.0859 49.3201 67.2652 49.4326L53.8903 51.266ZM98.024 84.207L55.0008 51.5573L53.1872 53.947L96.2104 86.5967L98.024 84.207Z" fill="#000A33"/>
</g>
<g filter="url(#filter3_d)">
<line x1="-12.5438" y1="81.1788" x2="85.4562" y2="14.1788" stroke="url(#paint1_linear)" stroke-width="3"/>
</g>
</g>
<defs>
<filter id="filter0_d" x="-32.5281" y="36.2195" width="87.4206" height="61.1479" filterUnits="userSpaceOnUse" color-interpolation-filters="sRGB">
<feFlood flood-opacity="0" result="BackgroundImageFix"/>
<feColorMatrix in="SourceAlpha" type="matrix" values="0 0 0 0 0 0 0 0 0 0 0 0 0 0 0 0 0 0 127 0"/>
<feOffset dx="4" dy="5"/>
<feGaussianBlur stdDeviation="2"/>
<feColorMatrix type="matrix" values="0 0 0 0 0 0 0 0 0 0 0 0 0 0 0 0 0 0 0.25 0"/>
<feBlend mode="normal" in2="BackgroundImageFix" result="effect1_dropShadow"/>
<feBlend mode="normal" in="SourceGraphic" in2="effect1_dropShadow" result="shape"/>
</filter>
<filter id="filter1_d" x="-27.562" y="-2.34424" width="70.4569" height="65.2344" filterUnits="userSpaceOnUse" color-interpolation-filters="sRGB">
<feFlood flood-opacity="0" result="BackgroundImageFix"/>
<feColorMatrix in="SourceAlpha" type="matrix" values="0 0 0 0 0 0 0 0 0 0 0 0 0 0 0 0 0 0 127 0"/>
<feOffset dy="4"/>
<feGaussianBlur stdDeviation="2"/>
<feColorMatrix type="matrix" values="0 0 0 0 0 0 0 0 0 0 0 0 0 0 0 0 0 0 0.25 0"/>
<feBlend mode="normal" in2="BackgroundImageFix" result="effect1_dropShadow"/>
<feBlend mode="normal" in="SourceGraphic" in2="effect1_dropShadow" result="shape"/>
</filter>
<filter id="filter2_d" x="42.2217" y="43.0463" width="65.5731" height="59.1547" filterUnits="userSpaceOnUse" color-interpolation-filters="sRGB">
<feFlood flood-opacity="0" result="BackgroundImageFix"/>
<feColorMatrix in="SourceAlpha" type="matrix" values="0 0 0 0 0 0 0 0 0 0 0 0 0 0 0 0 0 0 127 0"/>
<feOffset dy="4"/>
<feGaussianBlur stdDeviation="2"/>
<feColorMatrix type="matrix" values="0 0 0 0 0 0 0 0 0 0 0 0 0 0 0 0 0 0 0.25 0"/>
<feBlend mode="normal" in2="BackgroundImageFix" result="effect1_dropShadow"/>
<feBlend mode="normal" in="SourceGraphic" in2="effect1_dropShadow" result="shape"/>
</filter>
<filter id="filter3_d" x="-17.3904" y="10.9406" width="107.693" height="77.4765" filterUnits="userSpaceOnUse" color-interpolation-filters="sRGB">
<feFlood flood-opacity="0" result="BackgroundImageFix"/>
<feColorMatrix in="SourceAlpha" type="matrix" values="0 0 0 0 0 0 0 0 0 0 0 0 0 0 0 0 0 0 127 0"/>
<feOffset dy="2"/>
<feGaussianBlur stdDeviation="2"/>
<feColorMatrix type="matrix" values="0 0 0 0 0 0 0 0 0 0 0 0 0 0 0 0 0 0 0.2 0"/>
<feBlend mode="normal" in2="BackgroundImageFix" result="effect1_dropShadow"/>
<feBlend mode="normal" in="SourceGraphic" in2="effect1_dropShadow" result="shape"/>
</filter>
<linearGradient id="paint0_linear" x1="87.138" y1="-3.19339" x2="8.99407" y2="56.5637" gradientUnits="userSpaceOnUse">
<stop offset="0.369792" stop-color="#FF00A6"/>
<stop offset="1" stop-color="#FFD900"/>
</linearGradient>
<linearGradient id="paint1_linear" x1="16.9406" y1="65.7451" x2="75.9451" y2="23.2619" gradientUnits="userSpaceOnUse">
<stop stop-color="#FFD900"/>
<stop offset="1" stop-color="#FFD900" stop-opacity="0"/>
</linearGradient>
</defs>
</svg>
